<svg width="318" height="236" viewBox="0 0 318 236" fill="none" xmlns="http://www.w3.org/2000/svg">

<path d="M292.614 207.371H25.3866V207.561H292.614V207.371Z" fill="#EBEBEB"/>
<path d="M286.136 217.568H265.085V217.758H286.136V217.568Z" fill="#EBEBEB"/>
<path d="M210.643 219.342H205.11V219.532H210.643V219.342Z" fill="#EBEBEB"/>
<path d="M264.449 211.741H252.238V211.931H264.449V211.741Z" fill="#EBEBEB"/>
<path d="M60.8656 212.755H33.3904V212.945H60.8656V212.755Z" fill="#EBEBEB"/>
<path d="M70.5328 212.755H66.526V212.945H70.5328V212.755Z" fill="#EBEBEB"/>
<path d="M143.227 215.478H83.634V215.668H143.227V215.478Z" fill="#EBEBEB"/>
<path d="M150.732 179.122H27.9204C25.9488 179.122 24.2952 177.475 24.2952 175.512V3.61031C24.2952 1.64681 25.9488 0 27.9204 0H150.732C152.704 0 154.357 1.64681 154.357 3.61031V175.512C154.357 177.538 152.767 179.122 150.732 179.122ZM27.9204 0.190016C26.0124 0.190016 24.4224 1.71015 24.4224 3.67364V175.575C24.4224 177.475 25.9488 179.059 27.9204 179.059H150.732C152.64 179.059 154.23 177.538 154.23 175.575V3.61031C154.23 1.71014 152.704 0.126677 150.732 0.126677H27.9204V0.190016Z" fill="#CACCCF"/>
<path d="M288.299 179.122H165.487C163.515 179.122 161.862 177.475 161.862 175.512V3.61031C161.862 1.64681 163.515 0 165.487 0H288.299C290.27 0 291.924 1.64681 291.924 3.61031V175.512C291.924 177.538 290.334 179.122 288.299 179.122ZM165.487 0.190016C163.579 0.190016 161.989 1.71015 161.989 3.67364V175.575C161.989 177.475 163.515 179.059 165.487 179.059H288.299C290.207 179.059 291.797 177.538 291.797 175.575V3.61031C291.797 1.71014 290.27 0.126677 288.299 0.126677H165.487V0.190016Z" fill="#CACCCF"/>
<path d="M184.225 75.427L271.866 75.427V18.2955L184.225 18.2955V75.427Z" fill="#E6E6E6"/>
<path d="M181.574 75.427L270.614 75.427V18.2955L181.574 18.2955V75.427Z" fill="#F0F0F0"/>
<path d="M184.225 86.6598L271.866 86.6598V75.4488L184.225 75.4488V86.6598Z" fill="#E6E6E6"/>
<path d="M177.118 86.6598L266.157 86.6598V75.4488L177.118 75.4488V86.6598Z" fill="#F0F0F0"/>
<path d="M266.859 71.7601V22.0392L185.324 22.0392V71.7601L266.859 71.7601Z" fill="#FAFAFA"/>
<path d="M248.485 71.6995L238.055 22.042H221.837L232.203 71.6995H248.485Z" fill="white"/>
<path d="M265.148 68.0259C265.276 68.0259 265.403 67.8992 265.403 67.7726V24.4489C265.403 24.3222 265.276 24.1956 265.148 24.1956C265.021 24.1956 264.894 24.3222 264.894 24.4489V67.7092C264.894 67.8992 265.021 68.0259 265.148 68.0259Z" fill="#F0F0F0"/>
<path d="M228.769 71.6995L218.339 22.042H211.979L222.409 71.6995H228.769Z" fill="white"/>
<path d="M185.8 71.7291V22.0082H185.355V71.7291H185.8Z" fill="#E6E6E6"/>
<path opacity="0.6" d="M180.688 27.6159H268.328L268.646 23.4989H181.006L180.688 27.6159Z" fill="#EBEBEB"/>
<path opacity="0.6" d="M180.688 34.4564H268.328L268.646 30.3394H181.006L180.688 34.4564Z" fill="#EBEBEB"/>
<path opacity="0.6" d="M180.688 41.2971H268.328L268.646 37.1801H181.006L180.688 41.2971Z" fill="#EBEBEB"/>
<path opacity="0.6" d="M180.688 48.1376H268.328L268.646 44.0206H181.006L180.688 48.1376Z" fill="#EBEBEB"/>
<path opacity="0.6" d="M180.688 54.9784H268.328L268.646 50.8613H181.006L180.688 54.9784Z" fill="#EBEBEB"/>
<path opacity="0.6" d="M180.688 61.8189H268.328L268.646 57.7019H181.006L180.688 61.8189Z" fill="#EBEBEB"/>
<path d="M259.297 165.82H240.917V169.431H259.297V165.82Z" fill="#E6E6E6"/>
<path d="M206.285 207.387H209.656V124.35H206.285V207.387Z" fill="#E6E6E6"/>
<path d="M194.511 169.465H240.939V165.854H194.511V169.465Z" fill="#F5F5F5"/>
<path d="M259.297 185.582H240.917V189.193H259.297V185.582Z" fill="#E6E6E6"/>
<path d="M194.511 189.184H240.939V185.574H194.511V189.184Z" fill="#F5F5F5"/>
<path d="M259.297 126.361H240.917V129.971H259.297V126.361Z" fill="#E6E6E6"/>
<path d="M194.511 129.962H240.939V126.352H194.511V129.962Z" fill="#F5F5F5"/>
<path d="M259.297 146.122H240.917V149.733H259.297V146.122Z" fill="#E6E6E6"/>
<path d="M194.511 149.682H240.939V146.071H194.511V149.682Z" fill="#F5F5F5"/>
<path d="M252.667 207.387H256.038V124.35H252.667V207.387Z" fill="#E6E6E6"/>
<path d="M237.523 207.387H240.894V124.35H237.523V207.387Z" fill="#F5F5F5"/>
<path d="M194.555 207.387H197.926V124.35H194.555V207.387Z" fill="#F5F5F5"/>
<path d="M41.5475 207.372H76.2731L76.2731 140.296H41.5475L41.5475 207.372Z" fill="#E6E6E6"/>
<path d="M50.817 207.371H41.595V198.124H60.5478L50.817 207.371Z" fill="#FAFAFA"/>
<path d="M136.197 207.372H170.922V140.296H136.197V207.372Z" fill="#E6E6E6"/>
<path d="M41.5798 204.185H144.294V140.276H41.5798L41.5798 204.185Z" fill="#FAFAFA"/>
<path d="M135.023 207.371H144.309V198.124H125.292L135.023 207.371Z" fill="#FAFAFA"/>
<path d="M48.7667 180.146H137.107V164.185H48.7667V180.146Z" fill="#F0F0F0"/>
<path d="M48.7667 199.51H137.107V183.548H48.7667V199.51Z" fill="#F0F0F0"/>
<path d="M65.572 165.821H120.332C121.922 165.821 123.257 164.554 123.257 162.907V162.781H62.6464V162.971C62.6464 164.554 63.982 165.821 65.572 165.821Z" fill="#FAFAFA"/>
<path d="M48.7667 160.719H137.107V144.758H48.7667V160.719Z" fill="#F0F0F0"/>
<path d="M65.572 146.439H120.332C121.922 146.439 123.257 145.172 123.257 143.526V143.336H62.6464V143.526C62.6464 145.172 63.982 146.439 65.572 146.439Z" fill="#FAFAFA"/>
<path d="M65.572 185.266H120.332C121.922 185.266 123.257 183.999 123.257 182.352V182.162H62.6464V182.352C62.6464 183.936 63.982 185.266 65.572 185.266Z" fill="#FAFAFA"/>
<path d="M47.075 75.427L134.716 75.427V18.2955L47.075 18.2955V75.427Z" fill="#E6E6E6"/>
<path d="M44.4239 75.427L133.464 75.427V18.2955L44.4239 18.2955V75.427Z" fill="#F0F0F0"/>
<path d="M47.075 86.6597L134.716 86.6597V75.4487L47.075 75.4487V86.6597Z" fill="#E6E6E6"/>
<path d="M39.9672 86.6597L129.007 86.6597V75.4487L39.9672 75.4487V86.6597Z" fill="#F0F0F0"/>
<path d="M129.723 71.711V21.9901L48.1877 21.9901L48.1877 71.711L129.723 71.711Z" fill="#FAFAFA"/>
<path d="M111.363 71.6994L100.933 22.0419H84.6512L95.0816 71.6994H111.363Z" fill="white"/>
<path d="M128.027 68.0258C128.154 68.0258 128.281 67.8991 128.281 67.7725V24.4488C128.281 24.3221 128.154 24.1954 128.027 24.1954C127.899 24.1954 127.772 24.3221 127.772 24.4488V67.7091C127.772 67.8991 127.836 68.0258 128.027 68.0258Z" fill="#F0F0F0"/>
<path d="M91.5841 71.6994L81.1537 22.0419H74.8573L85.2877 71.6994H91.5841Z" fill="white"/>
<path d="M48.6641 71.7432L48.6641 22.0223H48.2189L48.2189 71.7432H48.6641Z" fill="#E6E6E6"/>
<path opacity="0.6" d="M43.566 27.6158H131.207L131.525 23.4988H43.884L43.566 27.6158Z" fill="#EBEBEB"/>
<path opacity="0.6" d="M43.566 30.0226H131.207L131.525 25.8423H43.884L43.566 30.0226Z" fill="#EBEBEB"/>
<path opacity="0.6" d="M43.566 32.366H131.207L131.525 28.1857H43.884L43.566 32.366Z" fill="#EBEBEB"/>
<path opacity="0.6" d="M43.566 34.7097H131.207L131.525 30.5293H43.884L43.566 34.7097Z" fill="#EBEBEB"/>
<path opacity="0.6" d="M43.566 37.0533H131.207L131.525 32.8729H43.884L43.566 37.0533Z" fill="#EBEBEB"/>
<path opacity="0.6" d="M43.566 39.3967H131.207L131.525 35.2163H43.884L43.566 39.3967Z" fill="#EBEBEB"/>
<path d="M61.0496 138.297H64.1024V104.664H61.0496L61.0496 138.297Z" fill="#F5F5F5"/>
<path d="M61.5006 138.25H62.3274L62.3274 104.617H61.5006L61.5006 138.25Z" fill="#FAFAFA"/>
<path d="M62.7085 138.25H63.0265L63.0265 104.618H62.7085L62.7085 138.25Z" fill="#FAFAFA"/>
<path d="M51.3887 140.359H73.7759C73.7759 138.775 72.5039 137.572 70.9775 137.572H54.1871C52.6607 137.508 51.3887 138.775 51.3887 140.359Z" fill="#F0F0F0"/>
<path d="M57.1131 125.537C57.6219 125.537 58.0035 125.157 58.0035 124.651V102.609C58.0035 102.102 57.6219 101.722 57.1131 101.722C56.6043 101.722 56.2227 102.102 56.2227 102.609V124.651C56.2863 125.157 56.6679 125.537 57.1131 125.537Z" fill="#F0F0F0"/>
<path d="M49.0356 112.616H76.1292L73.0128 93.7413H52.152L49.0356 112.616Z" fill="#E0E0E0"/>
<path d="M159 236C227.108 236 282.321 232.796 282.321 228.843C282.321 224.89 227.108 221.686 159 221.686C90.8922 221.686 35.6798 224.89 35.6798 228.843C35.6798 232.796 90.8922 236 159 236Z" fill="#F5F5F5"/>
<path d="M66.2276 93.3516L65.5933 93.3971L66.4385 105.084L67.0728 105.039L66.2276 93.3516Z" fill="#00A083"/>
<path d="M67.5098 111.077L66.8755 111.122L67.1954 115.544L67.8297 115.499L67.5098 111.077Z" fill="#00A083"/>
<path d="M214.777 164.807H78.6096C75.5568 164.807 72.822 162.274 72.6312 159.234L65.9532 66.6958C65.7624 63.6555 68.052 61.1219 71.1684 61.1219H207.4C210.452 61.1219 213.187 63.6555 213.378 66.6958L220.056 159.234C220.183 162.274 217.894 164.807 214.777 164.807Z" fill="#00A083"/>
<path d="M215.286 164.807H79.1184C76.0656 164.807 73.3308 162.274 73.14 159.234L66.462 66.6958C66.2712 63.6555 68.5608 61.1219 71.6772 61.1219H207.908C210.961 61.1219 213.696 63.6555 213.887 66.6958L220.565 159.234C220.756 162.274 218.402 164.807 215.286 164.807Z" fill="#00A083"/>
<path opacity="0.5" d="M215.286 164.808H79.1184C76.0656 164.808 73.3308 162.274 73.14 159.234L66.462 66.696C66.2712 63.6557 68.5608 61.1222 71.6772 61.1222H207.908C210.961 61.1222 213.696 63.6557 213.887 66.696L220.565 159.234C220.756 162.274 218.402 164.808 215.286 164.808Z" fill="white"/>
<path d="M208.036 63.9089H71.8045C71.6773 63.9089 71.4865 63.9089 71.3593 63.9089C67.8613 64.2256 68.5609 69.4827 72.1225 69.4827H208.545C212.043 69.4827 211.979 64.2256 208.481 63.9089C208.29 63.9089 208.163 63.9089 208.036 63.9089Z" fill="#00C39F"/>
<path d="M75.3661 66.6958C75.4297 67.3926 74.8573 67.9626 74.1577 67.9626C73.4581 67.9626 72.8221 67.3926 72.7585 66.6958C72.6949 65.9991 73.2673 65.4291 73.9669 65.4291C74.6665 65.4291 75.3025 65.9991 75.3661 66.6958Z" fill="#FAFAFA"/>
<path d="M79.6908 66.6958C79.7544 67.3926 79.182 67.9626 78.4824 67.9626C77.7828 67.9626 77.1468 67.3926 77.0832 66.6958C77.0196 65.9991 77.592 65.4291 78.2916 65.4291C79.0548 65.4291 79.6908 65.9991 79.6908 66.6958Z" fill="#FAFAFA"/>
<path d="M84.0796 66.6958C84.1432 67.3926 83.5708 67.9626 82.8712 67.9626C82.1716 67.9626 81.5356 67.3926 81.472 66.6958C81.4084 65.9991 81.9808 65.4291 82.6804 65.4291C83.38 65.4291 84.016 65.9991 84.0796 66.6958Z" fill="#FAFAFA"/>
<path d="M211.724 155.56H81.4078C80.263 155.56 79.309 154.673 79.2454 153.533L73.7122 77.4C73.6486 76.2599 74.4754 75.3732 75.6202 75.3732H205.937C207.081 75.3732 208.035 76.2599 208.099 77.4L213.632 153.533C213.632 154.673 212.805 155.56 211.724 155.56Z" fill="white"/>
<path d="M156.774 126.551L154.675 97.2249L148.251 93.3612H130.57L132.987 126.551H156.774Z" fill="white"/>
<path d="M156.773 126.868H132.924C132.733 126.868 132.606 126.742 132.606 126.615L130.189 93.4254C130.189 93.3621 130.189 93.2354 130.252 93.1721C130.316 93.1088 130.38 93.0454 130.507 93.0454H148.187C148.251 93.0454 148.315 93.0454 148.378 93.1088L154.802 96.9724C154.865 97.0358 154.929 97.0991 154.929 97.2258L157.028 126.552C157.028 126.615 157.028 126.742 156.964 126.805C156.964 126.868 156.901 126.868 156.773 126.868ZM133.242 126.298H156.455L154.357 97.4791L148.124 93.7421H130.888L133.242 126.298Z" fill="#00C39F"/>
<path d="M154.674 97.225L148.251 93.3613L150.604 98.4918L154.674 97.225Z" fill="#EBEBEB"/>
<path d="M150.604 98.8085C150.477 98.8085 150.35 98.7452 150.35 98.6185L147.997 93.488C147.933 93.3614 147.997 93.2347 148.06 93.108C148.187 93.0447 148.315 92.9813 148.442 93.0447L154.865 96.9083C154.993 96.9717 155.056 97.0983 154.993 97.225C154.993 97.3517 154.865 97.415 154.802 97.4784L150.731 98.7452C150.668 98.8085 150.604 98.8085 150.604 98.8085ZM148.951 94.1848L150.795 98.1118L153.975 97.1617L148.951 94.1848Z" fill="#00C39F"/>
<path d="M140.556 108.373C140.619 109.133 140.047 109.703 139.284 109.703C138.521 109.703 137.885 109.133 137.821 108.373C137.758 107.613 138.33 107.042 139.093 107.042C139.856 107.042 140.492 107.613 140.556 108.373Z" fill="#00C39F"/>
<path d="M149.269 108.373C149.332 109.133 148.76 109.703 147.997 109.703C147.234 109.703 146.598 109.133 146.534 108.373C146.47 107.613 147.043 107.042 147.806 107.042C148.569 106.979 149.205 107.613 149.269 108.373Z" fill="#00C39F"/>
<path d="M151.749 117.05C151.558 117.05 151.431 116.923 151.431 116.797C151.304 114.643 147.87 112.87 143.863 112.87C141.192 112.87 138.838 113.63 137.63 114.896C137.121 115.466 136.867 116.1 136.93 116.733C136.93 116.923 136.803 117.05 136.676 117.05C136.485 117.05 136.358 116.923 136.358 116.797C136.294 115.973 136.612 115.213 137.248 114.516C138.52 113.123 141.128 112.236 143.926 112.236C148.315 112.236 151.94 114.2 152.131 116.733C152.067 116.86 151.94 117.05 151.749 117.05Z" fill="#00C39F"/>
<path d="M135.595 105.649C135.531 105.649 135.467 105.649 135.404 105.586C135.277 105.459 135.277 105.269 135.404 105.143L136.739 103.686C136.867 103.559 137.057 103.559 137.185 103.686C137.312 103.812 137.312 104.002 137.185 104.129L135.849 105.586C135.722 105.586 135.658 105.649 135.595 105.649Z" fill="#00C39F"/>
<path d="M151.113 105.649C151.049 105.649 150.986 105.649 150.922 105.586L149.332 104.129C149.205 104.002 149.205 103.812 149.332 103.686C149.459 103.559 149.65 103.559 149.777 103.686L151.367 105.143C151.495 105.269 151.495 105.459 151.367 105.586C151.24 105.586 151.177 105.649 151.113 105.649Z" fill="#00C39F"/>
<path d="M128.663 133.138H130.125L132.224 135.862L132.033 133.138H133.496L133.878 138.078H132.288L130.253 135.355L130.443 138.078H128.981L128.663 133.138Z" fill="#00C39F"/>
<path d="M134.387 135.608C134.323 134.785 134.514 134.151 134.959 133.708C135.404 133.265 135.977 133.011 136.803 133.011C137.63 133.011 138.266 133.265 138.775 133.645C139.284 134.088 139.538 134.721 139.602 135.482C139.665 136.052 139.602 136.558 139.411 136.938C139.22 137.318 138.966 137.572 138.648 137.825C138.266 138.015 137.821 138.142 137.312 138.142C136.74 138.142 136.295 138.078 135.913 137.888C135.531 137.698 135.213 137.445 134.959 137.065C134.577 136.685 134.45 136.178 134.387 135.608ZM135.977 135.608C136.04 136.115 136.104 136.495 136.358 136.685C136.549 136.875 136.803 137.002 137.121 137.002C137.439 137.002 137.694 136.875 137.885 136.685C138.075 136.495 138.139 136.115 138.075 135.545C138.012 135.102 137.948 134.721 137.694 134.531C137.503 134.341 137.249 134.215 136.931 134.215C136.613 134.215 136.358 134.341 136.231 134.531C135.977 134.785 135.913 135.102 135.977 135.608Z" fill="#00C39F"/>
<path d="M142.591 133.138H144.88C145.326 133.138 145.707 133.201 145.962 133.328C146.28 133.455 146.47 133.645 146.661 133.835C146.852 134.088 146.979 134.342 147.106 134.658C147.234 134.975 147.297 135.292 147.297 135.608C147.361 136.115 147.297 136.558 147.234 136.812C147.106 137.128 146.979 137.318 146.788 137.572C146.598 137.762 146.343 137.888 146.152 137.952C145.834 138.015 145.516 138.078 145.262 138.078H142.972L142.591 133.138ZM144.181 134.278L144.372 137.002H144.753C145.071 137.002 145.326 136.938 145.453 136.875C145.58 136.812 145.707 136.685 145.771 136.495C145.834 136.305 145.834 136.052 145.834 135.608C145.771 135.102 145.707 134.722 145.516 134.532C145.326 134.341 145.008 134.215 144.626 134.215H144.181V134.278Z" fill="#00C39F"/>
<path d="M150.986 137.255H149.269L149.078 138.078H147.488L149.015 133.138H150.668L152.894 138.078H151.304L150.986 137.255ZM150.605 136.178L149.905 134.405L149.46 136.178H150.605Z" fill="#00C39F"/>
<path d="M152.258 133.138H156.965L157.028 134.342H155.438L155.693 138.078H154.166L153.912 134.342H152.322L152.258 133.138Z" fill="#00C39F"/>
<path d="M160.526 137.255H158.809L158.618 138.078H157.028L158.555 133.138H160.208L162.434 138.078H160.844L160.526 137.255ZM160.081 136.178L159.382 134.405L159 136.178H160.081Z" fill="#00C39F"/>
<path d="M224.954 74.8029C225.526 74.5495 226.226 74.1695 226.798 73.7895C227.434 73.4094 228.07 73.0928 228.706 72.7127C229.978 71.9527 231.186 71.1926 232.395 70.3692C234.812 68.7224 237.038 66.8856 239.073 64.8587C239.327 64.6054 239.582 64.352 239.836 64.0986L240.218 63.7186L240.408 63.5286L240.472 63.4019C240.408 63.5919 240.472 63.5286 240.472 63.3386C240.536 63.2119 240.536 62.8952 240.536 62.6419C240.599 61.5018 240.345 60.045 240.09 58.6515C239.518 55.8013 238.691 52.8877 237.801 50.0374L240.281 48.9607C241.808 51.6843 243.143 54.5345 244.161 57.5748C244.67 59.0949 245.115 60.6784 245.242 62.5785C245.242 63.0852 245.306 63.5919 245.178 64.162C245.115 64.732 244.924 65.4288 244.415 66.2522L244.288 66.3788L244.224 66.5055L244.097 66.6322L243.906 66.8856L243.525 67.3289C243.27 67.6456 243.016 67.9623 242.698 68.279C240.536 70.6859 238.055 72.8394 235.448 74.7396C234.176 75.6896 232.84 76.5764 231.441 77.3998C230.741 77.8432 230.042 78.2232 229.342 78.6032C228.642 78.9833 227.943 79.3633 227.116 79.7433L224.954 74.8029Z" fill="#FFD0A6"/>
<path d="M219.293 223.712C219.802 223.712 220.311 223.586 220.692 223.522C220.756 223.522 220.756 223.459 220.756 223.396C220.756 223.332 220.756 223.269 220.692 223.269C220.501 223.142 218.911 222.129 218.275 222.382C218.148 222.446 218.085 222.509 218.021 222.762C217.957 223.016 218.021 223.269 218.212 223.459C218.53 223.649 218.848 223.712 219.293 223.712ZM220.311 223.332C219.357 223.522 218.657 223.459 218.403 223.269C218.275 223.142 218.275 223.016 218.275 222.826C218.275 222.699 218.339 222.699 218.403 222.636C218.721 222.509 219.675 222.952 220.311 223.332Z" fill="#00C39F"/>
<path d="M220.692 223.522C220.819 223.459 220.819 223.459 220.819 223.395C220.819 223.332 220.819 221.812 220.247 221.305C220.12 221.179 219.929 221.115 219.738 221.115C219.42 221.179 219.357 221.369 219.293 221.495C219.102 222.065 220.12 223.269 220.692 223.522C220.629 223.522 220.629 223.522 220.692 223.522ZM219.738 221.369C219.865 221.369 219.929 221.432 219.993 221.495C220.311 221.812 220.438 222.635 220.501 223.142C219.993 222.762 219.42 221.875 219.484 221.495C219.484 221.495 219.547 221.432 219.738 221.369Z" fill="#00C39F"/>
<path d="M220.183 58.9683C219.547 62.1352 218.275 68.4691 220.437 70.6226C220.437 70.6226 219.547 73.7895 213.696 73.7895C207.209 73.7895 210.579 70.6226 210.579 70.6226C214.077 69.7992 214.014 67.2023 213.378 64.7321L220.183 58.9683Z" fill="#FFB573"/>
<path d="M209.435 71.8892C208.417 72.0159 209.308 69.419 209.689 69.1656C210.643 68.5322 222.982 67.6455 222.854 69.1656C222.791 69.799 222.473 71.0658 221.964 71.5092C221.455 71.8259 218.275 70.5591 209.435 71.8892Z" fill="#263238"/>
<path d="M211.407 71.0025C210.58 71.2559 210.707 68.659 210.961 68.3423C211.597 67.5822 221.583 65.0487 221.837 66.5055C221.964 67.1388 222.028 68.3423 221.646 68.849C221.328 69.2924 218.403 68.5323 211.407 71.0025Z" fill="#263238"/>
<path d="M207.718 53.3311C207.654 53.3311 207.59 53.3311 207.527 53.2677C206.827 52.381 205.873 52.5076 205.873 52.5076C205.746 52.5076 205.619 52.4443 205.619 52.2543C205.619 52.1276 205.682 52.0009 205.873 52.0009C205.937 52.0009 207.082 51.8743 207.972 52.951C208.036 53.0777 208.036 53.2044 207.908 53.3311C207.845 53.2677 207.781 53.3311 207.718 53.3311Z" fill="#263238"/>
<path d="M206.509 56.3715C206.509 56.3715 205.937 58.2716 205.237 59.2217C205.873 59.6651 206.764 59.3484 206.764 59.3484L206.509 56.3715Z" fill="#FF5652"/>
<path d="M206.827 55.6112C206.891 56.0545 206.7 56.4346 206.382 56.4346C206.128 56.4346 205.873 56.1179 205.81 55.7378C205.746 55.2945 205.937 54.9144 206.255 54.9144C206.509 54.9144 206.764 55.2311 206.827 55.6112Z" fill="#263238"/>
<path d="M206.319 54.9145L205.237 54.7245C205.301 54.7245 205.873 55.4845 206.319 54.9145Z" fill="#263238"/>
<path d="M226.861 223.395H221.519L221.964 211.108H227.307L226.861 223.395Z" fill="#FFB573"/>
<path d="M221.137 222.825H227.116C227.306 222.825 227.497 222.952 227.561 223.205L228.26 227.893C228.324 228.399 227.879 228.843 227.434 228.843C225.335 228.779 224.317 228.716 221.71 228.716C220.12 228.716 217.703 228.906 215.477 228.906C213.314 228.906 213.124 226.689 214.078 226.499C218.275 225.612 218.911 224.346 220.31 223.205C220.501 222.889 220.819 222.825 221.137 222.825Z" fill="#263238"/>
<g opacity="0.2">
<path opacity="0.2" d="M227.307 211.108H221.964L221.71 217.442H227.052L227.307 211.108Z" fill="black"/>
</g>
<path d="M205.682 77.9698C202.375 76.703 199.259 75.3096 196.142 73.6628C193.026 72.0793 189.91 70.3692 186.984 68.089C186.221 67.5189 185.521 66.8855 184.822 66.1255C184.631 65.9355 184.44 65.7454 184.313 65.5554C184.122 65.3021 183.995 65.1754 183.74 64.8587C183.295 64.2253 182.977 63.4019 182.914 62.5785C182.85 61.7551 182.977 60.9317 183.232 60.2983C183.486 59.6649 183.804 59.0949 184.122 58.6515C184.822 57.7014 185.521 57.068 186.284 56.4347C187.747 55.2312 189.337 54.3445 190.927 53.4577C191.69 53.0144 192.517 52.6343 193.344 52.3176C194.171 51.9376 194.934 51.6209 195.824 51.3676L196.969 53.8378C194.171 55.5479 191.309 57.5114 189.21 59.6649C188.701 60.1716 188.256 60.7417 187.938 61.2484C187.62 61.7551 187.62 62.1351 187.684 62.0718C187.684 62.0718 187.684 62.0718 187.747 62.1351L188.002 62.3885C188.065 62.5152 188.256 62.6418 188.32 62.7052C188.828 63.1486 189.401 63.6553 190.037 64.0986C191.309 64.9854 192.708 65.8088 194.107 66.6322C195.57 67.4556 197.033 68.2157 198.496 68.9124C201.485 70.3692 204.601 71.6993 207.654 72.9661L205.682 77.9698Z" fill="#FFD0A6"/>
<path d="M198.432 52.0642L199.322 50.1641L195.316 48.7706C195.316 48.7706 194.044 52.5076 195.57 54.2177C196.778 54.0277 197.86 53.2043 198.432 52.0642Z" fill="#FFD0A6"/>
<path d="M199.322 46.0471L196.079 45.1604L195.316 48.7707L199.322 50.1642V46.0471Z" fill="#FFD0A6"/>
<path d="M240.599 50.3541L241.044 45.9204L236.91 46.8705C236.91 46.8705 236.846 51.0509 239.009 51.6842L240.599 50.3541Z" fill="#FFD0A6"/>
<path d="M239.136 42.8169L236.401 44.0203L236.974 46.8706L241.108 45.9205L239.136 42.8169Z" fill="#FFD0A6"/>
<path d="M221.01 52.761C221.201 58.0182 221.392 60.235 219.039 63.2119C215.477 67.6456 208.926 66.7589 207.145 61.6285C205.555 57.0681 205.492 49.2141 210.453 46.6172C215.286 44.0836 220.819 47.5039 221.01 52.761Z" fill="#FFB573"/>
<path d="M218.72 63.212C223.936 60.9951 227.306 56.2447 225.907 48.8974C224.508 41.8668 219.738 41.1701 217.766 42.6269C215.795 44.0837 210.898 41.9302 207.908 44.4004C202.82 48.7074 207.654 53.2678 210.134 56.0547C211.661 59.0949 213.632 65.3655 218.72 63.212Z" fill="#263238"/>
<path d="M216.558 47.6307C218.339 50.1642 221.646 50.861 224.063 49.2142C226.479 47.5674 226.988 44.2104 225.207 41.6769C223.427 39.1433 220.119 38.4466 217.703 40.0934C215.349 41.7402 214.841 45.0972 216.558 47.6307Z" fill="#00C39F"/>
<path d="M217.957 43.0702C217.194 38.8265 221.264 35.5329 226.607 37.1163C232.013 38.6998 229.151 43.4502 228.069 47.2505C226.988 51.0508 229.85 54.6611 231.059 51.7476C232.267 48.834 230.232 47.9472 230.232 47.9472C230.232 47.9472 235.956 49.404 230.613 55.8646C225.271 62.2618 220.501 55.1679 221.773 50.9875C222.854 47.6939 218.657 47.1238 217.957 43.0702Z" fill="#263238"/>
<path d="M212.551 44.717C210.071 43.4502 205.937 42.3735 203.584 46.3638C202.439 48.264 202.884 50.7975 202.884 50.7975L210.135 51.3042L212.551 44.717Z" fill="#263238"/>
<path d="M201.994 49.5307C201.867 49.5307 201.803 49.4673 201.867 49.3407C201.867 49.214 202.057 46.6804 203.584 45.097C207.336 41.2333 211.661 44.4636 212.933 45.5404C212.997 45.6037 212.997 45.667 212.933 45.7937C212.869 45.857 212.806 45.857 212.679 45.7937C211.47 44.7803 207.273 41.6767 203.775 45.3503C202.312 46.8705 202.121 49.404 202.121 49.404C202.184 49.4673 202.057 49.5307 201.994 49.5307Z" fill="#263238"/>
<path d="M211.088 55.8012C211.088 56.8146 210.643 57.8281 210.007 58.5248C209.117 59.5382 208.099 59.0315 207.908 57.8914C207.718 56.878 207.908 55.1045 208.99 54.4711C210.071 53.9011 211.088 54.5978 211.088 55.8012Z" fill="#FFB573"/>
<path d="M209.944 104.002C209.944 104.002 210.262 140.802 213.505 161.324C216.113 177.918 220.883 216.238 220.883 216.238H228.133C228.133 216.238 228.833 179.248 227.497 162.844C224.19 121.357 232.776 113.63 225.844 104.002H209.944Z" fill="#263238"/>
<path opacity="0.1" d="M209.944 104.002C209.944 104.002 210.262 140.802 213.505 161.324C216.113 177.918 220.883 216.238 220.883 216.238H228.133C228.133 216.238 228.833 179.248 227.497 162.844C224.19 121.357 232.776 113.63 225.844 104.002H209.944Z" fill="white"/>
<path opacity="0.3" d="M213.76 120.66C216.304 131.744 214.269 149.289 212.87 157.017C211.407 145.299 210.644 130.161 210.262 119.013C211.598 116.923 212.806 116.733 213.76 120.66Z" fill="black"/>
<path d="M219.865 216.365H229.087L229.596 213.135L219.802 212.818L219.865 216.365Z" fill="#00C39F"/>
<path d="M222.473 72.9027C223.364 71.1926 228.006 70.1158 230.55 70.1158L232.458 78.6032C232.458 78.6032 227.37 86.1405 225.272 85.3171C222.791 84.367 220.629 76.5764 222.473 72.9027Z" fill="#00C39F"/>
<path opacity="0.4" d="M222.473 72.9027C223.364 71.1926 228.006 70.1158 230.55 70.1158L232.458 78.6032C232.458 78.6032 227.37 86.1405 225.272 85.3171C222.791 84.367 220.629 76.5764 222.473 72.9027Z" fill="black"/>
<path d="M217.13 214.338C217.13 214.275 217.13 214.275 217.13 214.211C217.13 214.148 217.067 214.148 217.003 214.148C216.749 214.211 214.396 214.591 214.078 215.225C214.014 215.351 214.014 215.478 214.078 215.605C214.205 215.795 214.396 215.921 214.65 215.985C215.35 216.048 216.494 214.971 217.13 214.338C217.067 214.338 217.067 214.338 217.13 214.338ZM214.269 215.288C214.459 214.908 215.731 214.591 216.622 214.465C215.795 215.288 215.032 215.795 214.587 215.731C214.459 215.731 214.332 215.668 214.205 215.478C214.269 215.415 214.269 215.351 214.269 215.288Z" fill="#00C39F"/>
<path d="M217.13 214.338C217.13 214.275 217.13 214.275 217.13 214.338C217.13 214.275 217.13 214.211 217.13 214.211C217.067 214.148 216.176 213.071 215.286 213.008C215.032 213.008 214.777 213.071 214.586 213.261C214.332 213.515 214.332 213.705 214.396 213.831C214.65 214.401 216.367 214.591 217.067 214.401C217.067 214.338 217.067 214.338 217.13 214.338ZM214.586 213.515C214.586 213.451 214.65 213.451 214.714 213.388C214.841 213.261 215.032 213.198 215.222 213.198C215.795 213.261 216.431 213.831 216.749 214.148C215.986 214.211 214.777 213.958 214.586 213.641C214.586 213.641 214.586 213.578 214.586 213.515Z" fill="#00C39F"/>
<path d="M222.663 212.058L217.766 214.211L215.604 209.714L212.742 203.824L212.424 203.127L217.321 200.974L217.703 201.734L220.437 207.434L222.663 212.058Z" fill="#FFB573"/>
<path opacity="0.2" d="M220.438 207.434L215.604 209.714L212.742 203.824L217.703 201.734L220.438 207.434Z" fill="black"/>
<path d="M204.219 104.002C204.219 104.002 188.637 142.512 192.899 160.69C196.715 177.095 213.569 208.131 213.569 208.131L220.056 204.901C220.056 204.901 209.625 167.404 208.481 159.297C206.255 143.462 220.437 121.104 220.437 104.065L204.219 104.002Z" fill="#263238"/>
<path opacity="0.1" d="M204.219 104.002C204.219 104.002 188.637 142.512 192.899 160.69C196.715 177.095 213.569 208.131 213.569 208.131L220.056 204.901C220.056 204.901 209.625 167.404 208.481 159.297C206.255 143.462 220.437 121.104 220.437 104.065L204.219 104.002Z" fill="white"/>
<path d="M216.939 213.578L221.773 210.094C221.964 209.967 222.155 209.967 222.345 210.157L225.653 213.578C225.971 213.958 225.907 214.528 225.525 214.845C223.808 216.048 222.918 216.555 220.819 218.075C219.483 219.025 216.876 221.115 215.095 222.445C213.314 223.712 211.915 222.065 212.551 221.368C215.413 218.201 215.985 216.238 216.431 214.464C216.494 214.021 216.621 213.704 216.939 213.578Z" fill="#263238"/>
<path d="M213.124 209.461L221.519 205.661L220.438 202.24L211.407 206.357L213.124 209.461Z" fill="#00C39F"/>
<path d="M208.353 72.4592C207.654 70.6857 201.548 68.6589 198.495 68.0255L197.16 78.033C197.16 78.033 202.121 85.1903 204.347 84.5569C206.891 83.8602 209.816 76.3229 208.353 72.4592Z" fill="#00C39F"/>
<path opacity="0.4" d="M208.353 72.4592C207.654 70.6857 201.548 68.6589 198.495 68.0255L197.16 78.033C197.16 78.033 202.121 85.1903 204.347 84.5569C206.891 83.8602 209.816 76.3229 208.353 72.4592Z" fill="black"/>
<path d="M201.675 71.9526C201.675 71.9526 199.131 72.8393 204.219 104.002C212.805 104.002 221.709 104.002 225.843 104.002C225.462 95.2612 225.462 89.8141 229.659 71.8259C229.659 71.8259 225.144 70.8125 220.501 70.6225C216.876 70.4324 213.887 70.3058 210.707 70.6225C206.445 71.0025 201.675 71.9526 201.675 71.9526Z" fill="#00C39F"/>
<path opacity="0.4" d="M201.675 71.9526C201.675 71.9526 199.131 72.8393 204.219 104.002C212.805 104.002 221.709 104.002 225.843 104.002C225.462 95.2612 225.462 89.8141 229.659 71.8259C229.659 71.8259 225.144 70.8125 220.501 70.6225C216.876 70.4324 213.887 70.3058 210.707 70.6225C206.445 71.0025 201.675 71.9526 201.675 71.9526Z" fill="black"/>
<path d="M226.162 102.735L227.116 104.635C227.179 104.762 226.989 104.952 226.734 104.952H204.029C203.838 104.952 203.647 104.825 203.647 104.762L203.457 102.862C203.457 102.735 203.584 102.609 203.838 102.609H225.78C225.971 102.545 226.098 102.609 226.162 102.735Z" fill="#00C39F"/>
<path opacity="0.3" d="M226.162 102.735L227.116 104.635C227.179 104.762 226.989 104.952 226.734 104.952H204.029C203.838 104.952 203.647 104.825 203.647 104.762L203.457 102.862C203.457 102.735 203.584 102.609 203.838 102.609H225.78C225.971 102.545 226.098 102.609 226.162 102.735Z" fill="white"/>
<path d="M223.236 105.142H223.809C223.936 105.142 223.999 105.079 223.999 105.015L223.745 102.482C223.745 102.419 223.618 102.355 223.491 102.355H222.918C222.791 102.355 222.727 102.419 222.727 102.482L222.982 105.015C222.982 105.079 223.109 105.142 223.236 105.142Z" fill="#263238"/>
<path d="M208.99 105.142H209.562C209.689 105.142 209.753 105.079 209.753 105.015L209.499 102.482C209.499 102.419 209.371 102.355 209.244 102.355H208.672C208.545 102.355 208.481 102.419 208.481 102.482L208.735 105.015C208.799 105.079 208.863 105.142 208.99 105.142Z" fill="#263238"/>

</svg>
