<svg width="24" height="24" viewBox="0 0 40 40" fill="none" xmlns="http://www.w3.org/2000/svg">
<path d="M35.1746 29.6564H32.8333V26.5705C32.8333 26.1394 32.4838 25.79 32.0529 25.79C31.6219 25.79 31.2725 26.1394 31.2725 26.5705V30.4369C31.2725 30.8679 31.6219 31.2173 32.0529 31.2173H35.1746C35.6055 31.2173 35.955 30.8679 35.955 30.4369C35.955 30.0058 35.6055 29.6564 35.1746 29.6564Z" fill="white"/>
<path d="M5.56461 12.4388H16.4448C16.8757 12.4388 17.2252 12.0894 17.2252 11.6584C17.2252 11.2273 16.8757 10.8779 16.4448 10.8779H5.56461C5.13365 10.8779 4.78418 11.2273 4.78418 11.6584C4.78418 12.0894 5.13358 12.4388 5.56461 12.4388Z" fill="white"/>
<path d="M19.1584 24.9189H5.56461C5.13365 24.9189 4.78418 25.2683 4.78418 25.6994C4.78418 26.1304 5.13365 26.4798 5.56461 26.4798H19.1585C19.5894 26.4798 19.9389 26.1304 19.9389 25.6994C19.9389 25.2683 19.5894 24.9189 19.1584 24.9189Z" fill="white"/>
<path d="M19.1584 29.5996H5.56461C5.13365 29.5996 4.78418 29.949 4.78418 30.38C4.78418 30.8111 5.13365 31.1604 5.56461 31.1604H19.1585C19.5894 31.1604 19.9389 30.8111 19.9389 30.38C19.9389 29.949 19.5894 29.5996 19.1584 29.5996Z" fill="white"/>
<path d="M23.5467 20.2383H5.56461C5.13365 20.2383 4.78418 20.5877 4.78418 21.0187C4.78418 21.4497 5.13365 21.7992 5.56461 21.7992H23.5467C23.9776 21.7992 24.3271 21.4497 24.3271 21.0187C24.3271 20.5877 23.9776 20.2383 23.5467 20.2383Z" fill="white"/>
<path d="M37.6262 24.8273C35.2996 22.5007 31.8685 21.9359 29.005 23.1321V9.33703C29.005 8.76622 28.7828 8.2296 28.3792 7.82604L21.1798 0.625746C21.012 0.458111 20.8169 0.321068 20.6054 0.218051C20.5982 0.214149 20.5907 0.210793 20.5834 0.207047C20.5825 0.206579 20.5816 0.206111 20.5806 0.205721C20.5576 0.194092 20.534 0.183634 20.5097 0.174347C20.245 0.0610294 19.9582 0 19.668 0H2.32301C1.07768 0 0.0644531 1.01315 0.0644531 2.25856V37.7414C0.0644531 38.9868 1.0776 40 2.32293 40H26.7464C27.9389 40 28.9293 39.0677 29.0012 37.8775C29.0022 37.8618 29.0027 37.8461 29.0027 37.8304V37.6686C29.9756 38.0755 31.014 38.2794 32.0526 38.2794C34.0711 38.2794 36.0896 37.5111 37.6262 35.9745C39.115 34.4857 39.9349 32.5063 39.9349 30.4008C39.9349 28.2954 39.115 26.316 37.6262 24.8273ZM26.3406 7.99469H21.1836C21.088 7.99469 21.0103 7.91735 21.0103 7.82222V2.66383L26.3406 7.99469ZM27.4418 37.8026C27.4104 38.1611 27.1085 38.4391 26.7465 38.4391H2.32301C1.93826 38.4391 1.62538 38.1262 1.62538 37.7414V2.25856C1.62538 1.8738 1.93834 1.56085 2.32301 1.56085H19.4495V7.82222C19.4495 8.77801 20.2274 9.55555 21.1837 9.55555H27.4442V24.0059C27.1062 24.2497 26.7831 24.5232 26.479 24.8273C24.9903 26.3161 24.1704 28.2955 24.1704 30.4009C24.1704 32.5063 24.9903 34.4857 26.479 35.9746C26.7824 36.2779 27.1047 36.5507 27.4419 36.7942V37.8026H27.4418ZM36.5225 34.8708C34.0577 37.3355 30.0474 37.3355 27.5826 34.8708C26.3886 33.6768 25.7311 32.0894 25.7311 30.4009C25.7311 28.7125 26.3886 27.1249 27.5826 25.931C28.815 24.6986 30.4337 24.0824 32.0525 24.0824C33.6713 24.0824 35.29 24.6986 36.5224 25.931C37.7164 27.125 38.374 28.7125 38.374 30.4009C38.374 32.0894 37.7165 33.6768 36.5225 34.8708Z" fill="white"/>
<path d="M5.48648 17.1693H19.5664C19.9974 17.1693 20.3468 16.8199 20.3468 16.3888C20.3468 15.9578 19.9974 15.6084 19.5664 15.6084H5.48648C5.05553 15.6084 4.70605 15.9578 4.70605 16.3888C4.70605 16.8199 5.05545 17.1693 5.48648 17.1693Z" fill="white"/>
<path d="M23.4498 17.17C23.881 17.17 24.2306 16.8205 24.2306 16.3892C24.2306 15.958 23.881 15.6084 23.4498 15.6084C23.0185 15.6084 22.6689 15.958 22.6689 16.3892C22.6689 16.8205 23.0185 17.17 23.4498 17.17Z" fill="white"/>

</svg>
