<svg width="16" height="16" viewBox="0 0 16 16" fill="none" xmlns="http://www.w3.org/2000/svg">
<path d="M7.29333 15.1004C6.97333 15.1004 6.66 15.0204 6.36666 14.8604C5.78 14.5337 5.42666 13.9404 5.42666 13.2737V9.74039C5.42666 9.40706 5.20666 8.90706 5 8.65372L2.50666 6.01372C2.08666 5.59372 1.76666 4.87372 1.76666 4.33372V2.80039C1.76666 1.73372 2.57333 0.900391 3.6 0.900391H12.4C13.4133 0.900391 14.2333 1.72039 14.2333 2.73372V4.20039C14.2333 4.90039 13.8133 5.69372 13.42 6.08706L10.5333 8.64039C10.2533 8.87372 10.0333 9.38706 10.0333 9.80039V12.6671C10.0333 13.2604 9.66 13.9471 9.19333 14.2271L8.27333 14.8204C7.97333 15.0071 7.63333 15.1004 7.29333 15.1004ZM3.6 1.90039C3.13333 1.90039 2.76666 2.29372 2.76666 2.80039V4.33372C2.76666 4.58039 2.96666 5.06039 3.22 5.31372L5.76 7.98706C6.1 8.40706 6.43333 9.10706 6.43333 9.73372V13.2671C6.43333 13.7004 6.73333 13.9137 6.86 13.9804C7.14 14.1337 7.48 14.1337 7.74 13.9737L8.66666 13.3804C8.85333 13.2671 9.04 12.9071 9.04 12.6671V9.80039C9.04 9.08706 9.38666 8.30039 9.88666 7.88039L12.74 5.35372C12.9667 5.12706 13.24 4.58706 13.24 4.19372V2.73372C13.24 2.27372 12.8667 1.90039 12.4067 1.90039H3.6Z" fill="#00C39F"/>
<path d="M4.00001 7.16749C3.90668 7.16749 3.82001 7.14083 3.73334 7.09416C3.50001 6.94749 3.42668 6.63416 3.57334 6.40083L6.86001 1.13416C7.00668 0.900827 7.31334 0.827493 7.54668 0.97416C7.78001 1.12083 7.85334 1.42749 7.70668 1.66083L4.42001 6.92749C4.32668 7.08083 4.16668 7.16749 4.00001 7.16749Z" fill="#00C39F"/>
</svg>
