<svg width="318" height="237" viewBox="0 0 318 237" fill="none" xmlns="http://www.w3.org/2000/svg">
<path d="M155.365 234.289H40.2786C38.4311 234.289 36.8815 232.738 36.8815 230.888V4.92741C36.8815 3.07772 38.4311 1.52637 40.2786 1.52637H155.365C157.212 1.52637 158.762 3.07772 158.762 4.92741V230.888C158.762 232.738 157.272 234.289 155.365 234.289ZM40.2786 1.70537C38.4907 1.70537 37.0007 3.13739 37.0007 4.98708V230.948C37.0007 232.738 38.4311 234.23 40.2786 234.23H155.365C157.153 234.23 158.643 232.798 158.643 230.948V4.92741C158.643 3.13739 157.212 1.6457 155.365 1.6457H40.2786V1.70537Z" fill="#CACCCF"/>
<path d="M284.278 234.289H169.192C167.344 234.289 165.795 232.738 165.795 230.888V4.92741C165.795 3.07772 167.344 1.52637 169.192 1.52637H284.278C286.126 1.52637 287.675 3.07772 287.675 4.92741V230.888C287.675 232.738 286.185 234.289 284.278 234.289ZM169.192 1.70537C167.404 1.70537 165.914 3.13739 165.914 4.98708V230.948C165.914 232.738 167.344 234.23 169.192 234.23H284.278C286.066 234.23 287.556 232.798 287.556 230.948V4.92741C287.556 3.13739 286.126 1.6457 284.278 1.6457H169.192V1.70537Z" fill="#CACCCF"/>
<path d="M80.6865 69.1299L81.6401 71.0989L83.7856 71.3972L82.2361 72.8889L82.5936 75.037L80.6865 74.0226L78.7197 75.037L79.0773 72.8889L77.5277 71.3972L79.6733 71.0989L80.6865 69.1299Z" fill="#EBEBEB"/>
<path d="M273.55 161.137L274.504 163.106L276.649 163.405L275.1 164.956L275.457 167.104L273.55 166.09L271.643 167.104L272 164.956L270.451 163.405L272.596 163.106L273.55 161.137Z" fill="#F5F5F5"/>
<path d="M235.347 217.881L236.3 219.85L238.446 220.148L236.896 221.7L237.254 223.848L235.347 222.833L233.44 223.848L233.797 221.7L232.248 220.148L234.393 219.85L235.347 217.881Z" fill="#F5F5F5"/>
<path d="M147.974 34.4629L148.332 35.1789L149.107 35.2982C149.285 35.2982 149.405 35.5965 149.226 35.7159L148.63 36.2529L148.749 37.0286C148.809 37.2076 148.57 37.3866 148.391 37.2672L147.676 36.9092L146.961 37.2672C146.782 37.3866 146.603 37.2076 146.603 37.0286L146.723 36.2529L146.127 35.7159C146.007 35.5965 146.067 35.3579 146.246 35.2982L147.021 35.1789L147.378 34.4629C147.617 34.2839 147.855 34.2839 147.974 34.4629Z" fill="#EBEBEB"/>
<path d="M49.5162 208.632L49.8738 209.348L50.6485 209.468C50.8273 209.468 50.9465 209.766 50.7677 209.885L50.1718 210.422L50.291 211.198C50.3506 211.377 50.1122 211.556 49.9334 211.437L49.2182 211.079L48.503 211.437C48.3242 211.556 48.1454 211.377 48.1454 211.198L48.2646 210.422L47.6686 209.885C47.5494 209.766 47.609 209.527 47.7878 209.468L48.5626 209.348L48.9202 208.632C49.1586 208.453 49.397 208.453 49.5162 208.632Z" fill="#F5F5F5"/>
<path d="M65.608 26.7658L65.9656 27.4819L66.7403 27.6012C66.9191 27.6012 67.0383 27.8995 66.8595 28.0189L66.2636 28.5559L66.3827 29.3315C66.4423 29.5105 66.204 29.6895 66.0252 29.5702L65.31 29.2122L64.5948 29.5702C64.416 29.6895 64.2372 29.5105 64.2372 29.3315L64.3564 28.5559L63.7604 28.0189C63.6412 27.8995 63.7008 27.6609 63.8796 27.6012L64.6544 27.4819L65.012 26.7658C65.2504 26.5868 65.4888 26.5868 65.608 26.7658Z" fill="#EBEBEB"/>
<path d="M64.5947 170.624C64.5947 171.042 64.2372 171.4 63.82 171.4C63.4028 171.4 63.0452 171.042 63.0452 170.624C63.0452 170.206 63.4028 169.848 63.82 169.848C64.2372 169.789 64.5947 170.147 64.5947 170.624Z" fill="#EBEBEB"/>
<path d="M177.595 71.2776C177.595 71.6953 177.237 72.0533 176.82 72.0533C176.403 72.0533 176.045 71.6953 176.045 71.2776C176.045 70.86 176.403 70.502 176.82 70.502C177.237 70.502 177.595 70.86 177.595 71.2776Z" fill="#EBEBEB"/>
<path d="M136.472 27.4222C136.472 27.8398 136.114 28.1978 135.697 28.1978C135.28 28.1978 134.922 27.8398 134.922 27.4222C134.922 27.0045 135.28 26.6465 135.697 26.6465C136.114 26.6465 136.472 27.0045 136.472 27.4222Z" fill="#F5F5F5"/>
<path d="M137.712 220.799C140.051 220.246 141.499 217.9 140.947 215.559C140.395 213.218 138.051 211.768 135.713 212.321C133.374 212.874 131.926 215.22 132.479 217.561C133.031 219.902 135.374 221.352 137.712 220.799Z" fill="#F0F0F0"/>
<path d="M135.22 214.002C134.266 214.002 133.432 214.301 132.717 214.838C132.478 215.375 132.359 215.971 132.359 216.568C132.359 219.014 134.326 220.924 136.769 220.924C137.604 220.924 138.379 220.685 139.034 220.327C139.392 219.731 139.571 219.014 139.571 218.298C139.511 215.912 137.604 214.002 135.22 214.002Z" fill="#E6E6E6"/>
<path d="M101.308 140.372H65.0123V123.964L101.308 80.8242H118.652V124.919H127.651V140.372H118.652V153.798H101.308V140.372ZM101.308 124.919V102.364L82.1173 124.919H101.308Z" fill="#00C39F"/>
<path d="M133.849 117.639C133.849 103.975 136.293 94.4881 141.18 88.9987C146.067 83.5689 153.577 80.8242 163.59 80.8242C168.417 80.8242 172.351 81.4209 175.45 82.6142C178.549 83.8076 181.052 85.359 183.019 87.2683C184.986 89.1777 186.535 91.2064 187.668 93.2947C188.8 95.3831 189.694 97.8295 190.409 100.634C191.72 106.004 192.436 111.553 192.436 117.341C192.436 130.348 190.23 139.895 185.82 145.921C181.41 151.948 173.841 154.991 163.113 154.991C157.093 154.991 152.206 154.036 148.511 152.127C144.816 150.218 141.776 147.353 139.392 143.654C137.664 141.029 136.293 137.389 135.339 132.795C134.326 128.2 133.849 123.188 133.849 117.639ZM153.577 117.639C153.577 126.768 154.411 133.033 156.02 136.375C157.63 139.716 159.954 141.387 163.053 141.387C165.08 141.387 166.808 140.671 168.298 139.239C169.788 137.807 170.861 135.599 171.576 132.496C172.291 129.453 172.649 124.68 172.649 118.176C172.649 108.629 171.814 102.245 170.205 98.9631C168.596 95.6814 166.152 94.0704 162.934 94.0704C159.656 94.0704 157.272 95.7411 155.782 99.0825C154.352 102.424 153.577 108.629 153.577 117.639Z" fill="#00C39F"/>
<path d="M234.811 140.372H198.515V123.964L234.811 80.8242H252.154V124.919H261.154V140.372H252.154V153.798H234.811V140.372ZM234.811 124.919V102.364L215.679 124.919H234.811Z" fill="#00C39F"/>
<g opacity="0.3">
<path opacity="0.3" d="M133.075 55.6447C133.075 56.2413 132.598 56.7783 131.942 56.7783C131.346 56.7783 130.81 56.301 130.81 55.6447C130.81 55.048 131.287 54.511 131.942 54.511C132.538 54.511 133.075 54.9883 133.075 55.6447Z" fill="#407BFF"/>
<path opacity="0.3" d="M56.7877 98.4859C57.2156 98.4859 57.5625 98.1386 57.5625 97.7102C57.5625 97.2819 57.2156 96.9346 56.7877 96.9346C56.3598 96.9346 56.0129 97.2819 56.0129 97.7102C56.0129 98.1386 56.3598 98.4859 56.7877 98.4859Z" fill="#407BFF"/>
<path opacity="0.3" d="M186.774 213.525C187.399 213.525 187.906 213.017 187.906 212.391C187.906 211.765 187.399 211.257 186.774 211.257C186.148 211.257 185.641 211.765 185.641 212.391C185.641 213.017 186.148 213.525 186.774 213.525Z" fill="#407BFF"/>
<path opacity="0.3" d="M213.832 167.581C214.26 167.581 214.607 167.233 214.607 166.805C214.607 166.377 214.26 166.029 213.832 166.029C213.404 166.029 213.057 166.377 213.057 166.805C213.057 167.233 213.404 167.581 213.832 167.581Z" fill="#407BFF"/>
<path opacity="0.3" d="M266.1 25.811C266.1 26.2287 265.743 26.5867 265.326 26.5867C264.908 26.5867 264.551 26.2287 264.551 25.811C264.551 25.3933 264.908 25.0353 265.326 25.0353C265.743 24.9756 266.1 25.3337 266.1 25.811Z" fill="#407BFF"/>
<path opacity="0.3" d="M116.268 9.87968C116.268 10.2974 115.91 10.6554 115.493 10.6554C115.076 10.6554 114.718 10.2974 114.718 9.87968C114.718 9.46201 115.076 9.104 115.493 9.104C115.91 9.104 116.268 9.46201 116.268 9.87968Z" fill="#407BFF"/>
<path opacity="0.3" d="M178.787 51.2291C179.215 51.2291 179.562 50.8818 179.562 50.4534C179.562 50.025 179.215 49.6777 178.787 49.6777C178.36 49.6777 178.013 50.025 178.013 50.4534C178.013 50.8818 178.36 51.2291 178.787 51.2291Z" fill="#407BFF"/>
</g>
<path d="M97.4344 51.2293C104.643 51.2293 110.487 45.379 110.487 38.1622C110.487 30.9453 104.643 25.095 97.4344 25.095C90.2259 25.095 84.3822 30.9453 84.3822 38.1622C84.3822 45.379 90.2259 51.2293 97.4344 51.2293Z" fill="#00C39F"/>
<path opacity="0.7" d="M97.4344 51.2293C104.643 51.2293 110.487 45.379 110.487 38.1622C110.487 30.9453 104.643 25.095 97.4344 25.095C90.2259 25.095 84.3822 30.9453 84.3822 38.1622C84.3822 45.379 90.2259 51.2293 97.4344 51.2293Z" fill="white"/>
<path opacity="0.2" d="M92.9646 28.3171C91.117 28.3171 89.3886 28.6751 87.8391 29.3912C85.6935 31.7182 84.4419 34.8209 84.4419 38.2219C84.4419 45.4417 90.2826 51.2891 97.4941 51.2891C99.3417 51.2891 101.07 50.9311 102.679 50.2151C104.765 47.8881 106.076 44.7854 106.076 41.444C106.017 34.1646 100.176 28.3171 92.9646 28.3171Z" fill="#00C39F"/>
<path opacity="0.2" d="M91.6533 31.7776C91.6533 32.4339 91.1169 32.9709 90.4613 32.9709C89.8057 32.9709 89.2693 32.4339 89.2693 31.7776C89.2693 31.1212 89.8057 30.5842 90.4613 30.5842C91.1169 30.5842 91.6533 31.1212 91.6533 31.7776Z" fill="#00C39F"/>
<path opacity="0.2" d="M105.719 30.5842C105.719 31.2406 105.182 31.7776 104.527 31.7776C103.871 31.7776 103.335 31.2406 103.335 30.5842C103.335 29.9279 103.871 29.3909 104.527 29.3909C105.182 29.3909 105.719 29.9279 105.719 30.5842Z" fill="#00C39F"/>
<path opacity="0.2" d="M103.335 39.0572C103.335 40.1312 102.441 41.0262 101.368 41.0262C100.295 41.0262 99.4011 40.1312 99.4011 39.0572C99.4011 37.9831 100.295 37.0881 101.368 37.0881C102.441 37.1478 103.335 37.9831 103.335 39.0572Z" fill="#00C39F"/>
<path opacity="0.2" d="M97.0769 44.6659C97.0769 46.0979 95.8849 47.2913 94.4545 47.2913C93.0241 47.2913 91.8322 46.0979 91.8322 44.6659C91.8322 43.2339 93.0241 42.0405 94.4545 42.0405C95.9445 42.0405 97.0769 43.2339 97.0769 44.6659Z" fill="#00C39F"/>
<path d="M252.209 195.89C253.661 189.732 249.852 183.562 243.702 182.108C237.551 180.654 231.388 184.467 229.936 190.624C228.484 196.782 232.292 202.952 238.443 204.406C244.593 205.86 250.756 202.047 252.209 195.89Z" fill="#00C39F"/>
<path opacity="0.3" d="M252.209 195.89C253.661 189.732 249.852 183.562 243.702 182.108C237.551 180.654 231.388 184.467 229.936 190.624C228.484 196.782 232.292 202.952 238.443 204.406C244.593 205.86 250.756 202.047 252.209 195.89Z" fill="white"/>
<path opacity="0.4" d="M248.28 184.347C247.267 184.049 246.135 183.87 245.002 183.87C238.685 183.87 233.559 189.002 233.559 195.326C233.559 198.906 235.228 202.128 237.791 204.217C238.804 204.515 239.936 204.694 241.069 204.694C247.386 204.694 252.512 199.563 252.512 193.238C252.512 189.658 250.903 186.436 248.28 184.347Z" fill="#00C39F"/>
<path d="M230.103 196.639C217.885 202.427 227.003 206.842 244.228 200.637C260.2 194.908 266.279 187.629 252.035 189.896C252.75 192.939 232.785 200.756 230.103 196.639Z" fill="#00C39F"/>
<path opacity="0.2" d="M248.161 80.8247C232.129 91.6842 211.388 105.945 205.667 140.373H204.475C210.017 106.362 230.043 91.6842 246.075 80.8247H248.161Z" fill="black"/>
<path d="M165.258 188.465C155.127 188.465 145.114 183.871 140.227 176.412C137.187 171.818 133.73 162.092 144.16 149.204L145.114 149.979C137.724 159.109 136.412 168.297 141.3 175.756C147.259 184.885 161.325 189.479 173.304 186.198C185.582 182.856 193.091 172.116 193.806 156.841C196.25 104.453 224.083 88.2833 244.347 76.5288C256.982 69.1897 266.1 63.9389 264.074 52.7811C263.776 51.2297 263.18 50.1557 262.167 49.4994C259.545 47.769 254.479 48.9624 248.638 50.3347C237.135 53.0198 221.401 56.7192 211.984 40.7283L212.997 40.1316C221.937 55.3468 236.599 51.9458 248.34 49.2011C254.479 47.769 259.783 46.516 262.763 48.5447C264.014 49.3801 264.849 50.6927 265.147 52.6021C267.292 64.5953 257.399 70.3233 244.823 77.6028C224.739 89.2379 197.263 105.229 194.82 156.961C194.045 172.832 186.297 183.93 173.483 187.451C170.861 188.107 168.06 188.465 165.258 188.465Z" fill="#407BFF"/>
<path opacity="0.2" d="M165.258 188.465C155.127 188.465 145.114 183.871 140.227 176.412C137.187 171.818 133.73 162.092 144.16 149.204L145.114 149.979C137.724 159.109 136.412 168.297 141.3 175.756C147.259 184.885 161.325 189.479 173.304 186.198C185.582 182.856 193.091 172.116 193.806 156.841C196.25 104.453 224.083 88.2833 244.347 76.5288C256.982 69.1897 266.1 63.9389 264.074 52.7811C263.776 51.2297 263.18 50.1557 262.167 49.4994C259.545 47.769 254.479 48.9624 248.638 50.3347C237.135 53.0198 221.401 56.7192 211.984 40.7283L212.997 40.1316C221.937 55.3468 236.599 51.9458 248.34 49.2011C254.479 47.769 259.783 46.516 262.763 48.5447C264.014 49.3801 264.849 50.6927 265.147 52.6021C267.292 64.5953 257.399 70.3233 244.823 77.6028C224.739 89.2379 197.263 105.229 194.82 156.961C194.045 172.832 186.297 183.93 173.483 187.451C170.861 188.107 168.06 188.465 165.258 188.465Z" fill="white"/>
<path d="M199.707 26.5869C203.819 26.5273 207.813 27.84 207.813 27.84C207.813 27.84 214.368 39.0574 215.143 41.6231C214.845 44.1292 210.614 48.3059 210.614 48.3059L199.707 26.5869Z" fill="#00C39F"/>
<path opacity="0.3" d="M199.707 26.5869C203.819 26.5273 207.813 27.84 207.813 27.84C207.813 27.84 214.368 39.0574 215.143 41.6231C214.845 44.1292 210.614 48.3059 210.614 48.3059L199.707 26.5869Z" fill="white"/>
<path d="M219.077 81.0039C216.633 77.9012 214.19 74.6792 212.163 71.2185C211.686 70.3831 211.21 69.4881 210.733 68.5931C210.494 68.1157 210.256 67.5787 210.018 67.0417C209.779 66.5644 209.362 65.908 209.302 65.4307C208.587 57.8529 211.15 52.3039 208.706 46.2178L198.873 50.0365C198.873 50.0365 199.707 60.8363 201.614 67.3401C202.806 71.3378 205.488 74.7985 208.051 78.0205C208.885 79.0349 209.66 80.0492 210.435 81.0636C211.21 82.0183 212.044 82.9133 212.819 83.868C213.951 85.3 214.368 86.6723 213.474 88.4027C213.415 88.522 213.355 88.5817 213.355 88.701C213.117 89.1187 214.249 89.6557 215.024 88.701C216.216 87.1497 216.037 87.269 217.11 85.9563C217.766 85.1806 218.481 84.2856 219.077 83.5696C219.673 82.7939 219.673 81.7199 219.077 81.0039Z" fill="#00C39F"/>
<path opacity="0.7" d="M219.077 81.0039C216.633 77.9012 214.19 74.6792 212.163 71.2185C211.686 70.3831 211.21 69.4881 210.733 68.5931C210.494 68.1157 210.256 67.5787 210.018 67.0417C209.779 66.5644 209.362 65.908 209.302 65.4307C208.587 57.8529 211.15 52.3039 208.706 46.2178L198.873 50.0365C198.873 50.0365 199.707 60.8363 201.614 67.3401C202.806 71.3378 205.488 74.7985 208.051 78.0205C208.885 79.0349 209.66 80.0492 210.435 81.0636C211.21 82.0183 212.044 82.9133 212.819 83.868C213.951 85.3 214.368 86.6723 213.474 88.4027C213.415 88.522 213.355 88.5817 213.355 88.701C213.117 89.1187 214.249 89.6557 215.024 88.701C216.216 87.1497 216.037 87.269 217.11 85.9563C217.766 85.1806 218.481 84.2856 219.077 83.5696C219.673 82.7939 219.673 81.7199 219.077 81.0039Z" fill="white"/>
<path opacity="0.3" d="M216.693 77.9014C215.382 79.5124 212.7 81.5411 211.508 82.3764C211.746 82.6748 212.044 82.9731 212.282 83.2714C214.726 81.6604 216.633 79.6317 217.348 78.7964C217.17 78.498 216.931 78.1997 216.693 77.9014Z" fill="#00C39F"/>
<path opacity="0.3" d="M219.077 81.004C219.077 80.9443 219.017 80.9443 219.017 80.9443C218.6 81.362 218.302 82.078 218.242 82.8537C218.183 83.3907 218.302 83.868 218.481 84.2857C218.66 84.047 218.838 83.8084 219.017 83.6294C219.673 82.794 219.673 81.72 219.077 81.004Z" fill="#00C39F"/>
<path d="M197.323 33.7469C196.31 35.2386 195.058 36.7303 193.509 38.043C192.734 38.6993 191.84 39.296 190.886 39.833C190.409 40.0717 189.873 40.3104 189.337 40.4894L188.919 40.6087L188.8 40.6684C188.681 40.6684 188.621 40.728 188.502 40.728C188.323 40.7877 188.145 40.7877 187.966 40.7877C187.31 40.8474 186.834 40.728 186.476 40.6684C185.701 40.4894 185.224 40.191 184.748 39.8927C184.271 39.5943 183.854 39.3557 183.436 39.0573C182.662 38.4607 181.946 37.864 181.291 37.2673C179.98 36.0143 178.788 34.7016 177.715 33.2696C177.238 32.6132 177.357 31.6586 178.013 31.1812C178.549 30.8232 179.205 30.7635 179.682 31.1216H179.741C181.172 32.0166 182.542 32.9712 183.973 33.8066C184.688 34.2243 185.344 34.6419 185.999 34.9403C186.357 35.1193 186.655 35.2386 186.953 35.3579C187.251 35.4773 187.549 35.5369 187.608 35.5369C187.668 35.5369 187.608 35.4773 187.37 35.4773C187.31 35.4773 187.251 35.4773 187.191 35.4773C187.132 35.4773 187.132 35.4773 187.072 35.5369C187.012 35.5369 187.072 35.5369 187.072 35.5369L187.251 35.4176C187.489 35.2983 187.787 35.1193 188.025 34.9403C188.562 34.5823 189.039 34.1646 189.515 33.6873C190.469 32.7326 191.423 31.4796 192.436 30.2265C193.449 28.9139 195.356 28.7349 196.608 29.7492C197.979 30.7039 198.217 32.4342 197.323 33.7469Z" fill="#00C39F"/>
<path opacity="0.7" d="M197.323 33.7469C196.31 35.2386 195.058 36.7303 193.509 38.043C192.734 38.6993 191.84 39.296 190.886 39.833C190.409 40.0717 189.873 40.3104 189.337 40.4894L188.919 40.6087L188.8 40.6684C188.681 40.6684 188.621 40.728 188.502 40.728C188.323 40.7877 188.145 40.7877 187.966 40.7877C187.31 40.8474 186.834 40.728 186.476 40.6684C185.701 40.4894 185.224 40.191 184.748 39.8927C184.271 39.5943 183.854 39.3557 183.436 39.0573C182.662 38.4607 181.946 37.864 181.291 37.2673C179.98 36.0143 178.788 34.7016 177.715 33.2696C177.238 32.6132 177.357 31.6586 178.013 31.1812C178.549 30.8232 179.205 30.7635 179.682 31.1216H179.741C181.172 32.0166 182.542 32.9712 183.973 33.8066C184.688 34.2243 185.344 34.6419 185.999 34.9403C186.357 35.1193 186.655 35.2386 186.953 35.3579C187.251 35.4773 187.549 35.5369 187.608 35.5369C187.668 35.5369 187.608 35.4773 187.37 35.4773C187.31 35.4773 187.251 35.4773 187.191 35.4773C187.132 35.4773 187.132 35.4773 187.072 35.5369C187.012 35.5369 187.072 35.5369 187.072 35.5369L187.251 35.4176C187.489 35.2983 187.787 35.1193 188.025 34.9403C188.562 34.5823 189.039 34.1646 189.515 33.6873C190.469 32.7326 191.423 31.4796 192.436 30.2265C193.449 28.9139 195.356 28.7349 196.608 29.7492C197.979 30.7039 198.217 32.4342 197.323 33.7469Z" fill="white"/>
<path d="M175.569 29.8686L176.284 31.062C176.284 31.062 176.821 32.6133 177.894 32.9117L180.814 31.957L180.695 31.7183C180.337 31.1813 180.337 30.0476 180.516 29.1526C180.635 28.2576 180.158 28.1979 179.801 28.4366C179.622 28.556 179.443 28.9736 179.324 29.451C179.205 29.272 179.026 29.093 178.847 28.914L177.953 28.0189C177.596 27.6609 176.94 27.6013 176.582 27.9593L175.867 28.6156C175.391 28.914 175.331 29.451 175.569 29.8686Z" fill="#00C39F"/>
<path opacity="0.7" d="M175.569 29.8686L176.284 31.062C176.284 31.062 176.821 32.6133 177.894 32.9117L180.814 31.957L180.695 31.7183C180.337 31.1813 180.337 30.0476 180.516 29.1526C180.635 28.2576 180.158 28.1979 179.801 28.4366C179.622 28.556 179.443 28.9736 179.324 29.451C179.205 29.272 179.026 29.093 178.847 28.914L177.953 28.0189C177.596 27.6609 176.94 27.6013 176.582 27.9593L175.867 28.6156C175.391 28.914 175.331 29.451 175.569 29.8686Z" fill="white"/>
<path d="M202.627 25.5727C199.886 26.2291 196.071 27.8401 193.509 29.4511C192.615 30.0478 192.138 31.1218 192.376 32.1362C193.509 37.7449 196.131 45.3227 198.992 50.0961L212.163 44.6663C212.282 42.3393 209.064 34.8212 205.786 27.5418C205.13 26.1694 203.998 25.2147 202.627 25.5727Z" fill="#00C39F"/>
<path opacity="0.8" d="M202.627 25.5727C199.886 26.2291 196.071 27.8401 193.509 29.4511C192.615 30.0478 192.138 31.1218 192.376 32.1362C193.509 37.7449 196.131 45.3227 198.992 50.0961L212.163 44.6663C212.282 42.3393 209.064 34.8212 205.786 27.5418C205.13 26.1694 203.998 25.2147 202.627 25.5727Z" fill="white"/>
<path opacity="0.3" d="M207.753 32.1362L205.131 31.2412C205.727 32.7926 207.813 34.7019 209.303 35.8356C208.826 34.6423 208.289 33.3892 207.753 32.1362Z" fill="#00C39F"/>
<path d="M201.733 19.6656C200.661 17.5773 198.277 16.5629 195.476 16.8016C193.092 16.9806 191.006 19.427 191.244 20.7396C191.482 22.0523 193.509 22.5893 193.866 23.0667L192.198 24.26C191.363 24.8567 191.184 25.9904 191.84 26.8257C192.555 27.7207 193.449 28.6158 193.986 29.2721C198.575 29.1528 201.912 27.4224 203.164 25.7517C202.687 23.6037 202.806 21.6943 201.733 19.6656Z" fill="#00C39F"/>
<path opacity="0.8" d="M201.733 19.6656C200.661 17.5773 198.277 16.5629 195.476 16.8016C193.092 16.9806 191.006 19.427 191.244 20.7396C191.482 22.0523 193.509 22.5893 193.866 23.0667L192.198 24.26C191.363 24.8567 191.184 25.9904 191.84 26.8257C192.555 27.7207 193.449 28.6158 193.986 29.2721C198.575 29.1528 201.912 27.4224 203.164 25.7517C202.687 23.6037 202.806 21.6943 201.733 19.6656Z" fill="white"/>
<path d="M199.528 20.9186C200.422 23.2456 199.29 25.871 196.965 26.766C194.641 27.661 192.019 26.5273 191.125 24.2003C190.231 21.8733 191.363 19.2479 193.687 18.3529C196.012 17.4579 198.575 18.5916 199.528 20.9186Z" fill="#263238"/>
<path d="M238.208 74.679C238.149 72.7099 238.029 72.8889 238.029 71.2182C237.97 70.2039 237.97 69.0702 237.97 68.1155C237.97 67.1609 237.314 66.3255 236.361 66.1465C235.586 65.9675 234.751 65.8482 233.977 65.6692C232.964 65.4305 231.95 65.1918 230.937 64.8935C230.162 64.6548 229.388 64.4162 228.613 64.1178C227.778 63.8195 227.004 63.5211 226.169 63.1631C225.216 62.7455 224.322 62.3278 223.368 61.9101C222.355 61.4328 221.342 60.8958 220.328 60.3588C216.395 53.855 216.335 49.5589 212.104 44.5469L203.045 48.6639C203.045 48.6639 209.66 60.4781 214.19 65.4305C216.812 68.2945 220.865 69.6072 224.5 70.5619C227.123 71.2182 229.805 71.7553 232.487 72.2326C233.5 72.4116 234.632 72.4713 235.526 73.1276C236.241 73.6049 236.599 74.3806 236.778 75.216C236.837 75.395 236.837 75.574 236.897 75.6933C237.016 76.29 238.268 75.8723 238.208 74.679Z" fill="#00C39F"/>
<path opacity="0.8" d="M238.208 74.679C238.149 72.7099 238.029 72.8889 238.029 71.2182C237.97 70.2039 237.97 69.0702 237.97 68.1155C237.97 67.1609 237.314 66.3255 236.361 66.1465C235.586 65.9675 234.751 65.8482 233.977 65.6692C232.964 65.4305 231.95 65.1918 230.937 64.8935C230.162 64.6548 229.388 64.4162 228.613 64.1178C227.778 63.8195 227.004 63.5211 226.169 63.1631C225.216 62.7455 224.322 62.3278 223.368 61.9101C222.355 61.4328 221.342 60.8958 220.328 60.3588C216.395 53.855 216.335 49.5589 212.104 44.5469L203.045 48.6639C203.045 48.6639 209.66 60.4781 214.19 65.4305C216.812 68.2945 220.865 69.6072 224.5 70.5619C227.123 71.2182 229.805 71.7553 232.487 72.2326C233.5 72.4116 234.632 72.4713 235.526 73.1276C236.241 73.6049 236.599 74.3806 236.778 75.216C236.837 75.395 236.837 75.574 236.897 75.6933C237.016 76.29 238.268 75.8723 238.208 74.679Z" fill="white"/>
<path opacity="0.3" d="M233.619 65.6098C233.262 65.5501 232.904 65.4308 232.546 65.3711C232.546 67.4595 231.593 70.9798 231.235 72.0538C231.593 72.1135 232.01 72.1732 232.368 72.2925C233.44 69.4881 233.619 66.5048 233.619 65.6098Z" fill="#00C39F"/>
<path opacity="0.3" d="M237.97 68.1753C237.97 67.2206 237.314 66.3853 236.361 66.2063C236.182 66.1466 236.003 66.1466 235.765 66.0869C235.824 66.6239 236.182 67.2803 236.718 67.8173C237.076 68.1753 237.553 68.4139 237.91 68.4736C237.97 68.3543 237.97 68.2349 237.97 68.1753Z" fill="#00C39F"/>
<path d="M198.694 20.9784C198.932 21.8734 197.919 22.8281 197.085 22.0524C196.429 21.3961 195.416 20.3817 194.641 19.8447C193.807 19.3077 194.939 18.4127 196.25 18.7707C197.442 19.069 198.396 20.0834 198.694 20.9784Z" fill="white"/>
<path d="M198.753 49.7979C198.336 49.9769 199.111 50.6929 199.111 50.6929C199.111 50.6929 207.455 47.8288 212.521 44.9051C212.58 44.3084 212.104 43.9504 212.104 43.9504C212.104 43.9504 205.905 47.1725 198.753 49.7979Z" fill="#00C39F"/>
<path opacity="0.5" d="M198.753 49.7979C198.336 49.9769 199.111 50.6929 199.111 50.6929C199.111 50.6929 207.455 47.8288 212.521 44.9051C212.58 44.3084 212.104 43.9504 212.104 43.9504C212.104 43.9504 205.905 47.1725 198.753 49.7979Z" fill="white"/>
<path d="M204.892 25.155C206.561 25.9903 208.111 26.8853 209.601 27.84C210.375 28.3173 211.15 28.7947 211.865 29.3317C212.64 29.8687 213.355 30.4057 214.13 31.062L214.428 31.3007L214.786 31.599C215.024 31.8377 215.203 32.0167 215.382 32.2554C215.56 32.4941 215.739 32.6731 215.918 32.8521C216.097 33.0311 216.216 33.2697 216.395 33.4487C216.991 34.2244 217.468 35.0598 217.944 35.8354C218.838 37.4465 219.673 39.0575 220.328 40.7878C220.626 41.5635 220.209 42.4585 219.434 42.6972C218.838 42.9359 218.242 42.7569 217.825 42.3392V42.2795C216.633 41.0265 215.501 39.6542 214.309 38.4011C213.176 37.1481 211.985 35.8951 211.031 35.3581C209.66 34.5228 208.17 33.6874 206.68 32.8521L202.151 30.346C200.72 29.5704 200.184 27.7207 201.018 26.2886C201.674 24.976 203.462 24.4389 204.892 25.155Z" fill="#00C39F"/>
<path opacity="0.8" d="M204.892 25.155C206.561 25.9903 208.111 26.8853 209.601 27.84C210.375 28.3173 211.15 28.7947 211.865 29.3317C212.64 29.8687 213.355 30.4057 214.13 31.062L214.428 31.3007L214.786 31.599C215.024 31.8377 215.203 32.0167 215.382 32.2554C215.56 32.4941 215.739 32.6731 215.918 32.8521C216.097 33.0311 216.216 33.2697 216.395 33.4487C216.991 34.2244 217.468 35.0598 217.944 35.8354C218.838 37.4465 219.673 39.0575 220.328 40.7878C220.626 41.5635 220.209 42.4585 219.434 42.6972C218.838 42.9359 218.242 42.7569 217.825 42.3392V42.2795C216.633 41.0265 215.501 39.6542 214.309 38.4011C213.176 37.1481 211.985 35.8951 211.031 35.3581C209.66 34.5228 208.17 33.6874 206.68 32.8521L202.151 30.346C200.72 29.5704 200.184 27.7207 201.018 26.2886C201.674 24.976 203.462 24.4389 204.892 25.155Z" fill="white"/>
<path d="M221.699 43.7713L221.222 42.5183C221.222 42.5183 220.924 40.9073 219.911 40.4299L216.931 40.9073L217.051 41.1459C217.349 41.7426 217.11 42.8166 216.872 43.7116C216.574 44.6067 217.051 44.6663 217.468 44.547C217.706 44.4277 217.885 44.0696 218.123 43.652C218.243 43.8906 218.362 44.0696 218.481 44.2487L219.196 45.263C219.494 45.6807 220.09 45.8 220.567 45.5017L221.401 44.9647C221.759 44.726 221.878 44.189 221.699 43.7713Z" fill="#00C39F"/>
<path opacity="0.8" d="M221.699 43.7713L221.222 42.5183C221.222 42.5183 220.924 40.9073 219.911 40.4299L216.931 40.9073L217.051 41.1459C217.349 41.7426 217.11 42.8166 216.872 43.7116C216.574 44.6067 217.051 44.6663 217.468 44.547C217.706 44.4277 217.885 44.0696 218.123 43.652C218.243 43.8906 218.362 44.0696 218.481 44.2487L219.196 45.263C219.494 45.6807 220.09 45.8 220.567 45.5017L221.401 44.9647C221.759 44.726 221.878 44.189 221.699 43.7713Z" fill="white"/>
<path opacity="0.3" d="M202.329 32.0166L201.614 32.0763L197.144 42.8761C197.383 42.8761 197.621 42.8761 197.859 42.8164C197.859 42.8164 203.7 40.6684 205.428 39.833C204.296 37.3867 202.329 32.0166 202.329 32.0166Z" fill="#00C39F"/>
<path d="M194.224 34.821C194.462 36.79 195.952 40.9071 197.204 42.8164C199.409 42.0407 203.045 40.6684 204.773 39.833C203.581 37.3867 202.329 33.9856 201.674 32.0166C199.767 32.1956 195.654 33.747 194.224 34.821Z" fill="white"/>
<path opacity="0.3" d="M198.634 37.2077C198.396 38.043 197.561 38.4607 196.727 38.222C195.893 37.9833 195.475 37.148 195.714 36.3126C195.952 35.4773 196.787 35.0596 197.621 35.2983C198.396 35.537 198.873 36.3723 198.634 37.2077Z" fill="#00C39F"/>
<path opacity="0.6" d="M199.767 35.1193C199.707 35.358 199.409 35.537 199.111 35.4773C198.873 35.4177 198.694 35.1193 198.753 34.821C198.813 34.5823 199.111 34.4033 199.409 34.463C199.707 34.5823 199.886 34.8807 199.767 35.1193Z" fill="#00C39F"/>
<path opacity="0.6" d="M201.137 34.5822C201.078 34.8209 200.78 34.9999 200.482 34.9402C200.243 34.8805 200.065 34.5822 200.124 34.2839C200.184 34.0452 200.482 33.8662 200.78 33.9259C201.018 34.0452 201.197 34.3435 201.137 34.5822Z" fill="#00C39F"/>
<path opacity="0.5" d="M202.985 39.2364L197.502 41.4441L197.144 40.37L202.627 38.1624L202.985 39.2364Z" fill="#00C39F"/>
<path opacity="0.2" d="M172.589 122.174C172.47 126.649 172.112 130.11 171.576 132.556C170.861 135.599 169.788 137.867 168.298 139.299C166.808 140.731 165.079 141.447 163.053 141.447C160.014 141.447 157.63 139.776 156.02 136.434C155.782 135.897 155.544 135.241 155.305 134.585C151.908 137.509 148.749 140.731 145.829 144.132L142.67 147.891C144.399 149.621 146.306 151.053 148.511 152.187C152.206 154.096 157.093 155.051 163.113 155.051C164.186 155.051 165.199 155.051 166.212 154.991C169.847 149.561 172.887 143.774 175.211 137.688L184.092 114.596L172.589 122.174Z" fill="black"/>
<path d="M92.7854 153.679C96.123 157.02 103.215 164.12 103.215 164.12L132.419 136.554C122.347 132.735 102.798 143.655 92.7854 153.679Z" fill="#25282B"/>
<path d="M129.141 190.075C125.803 186.734 118.711 179.634 118.711 179.634L146.246 150.396C150.06 160.48 139.154 180.111 129.141 190.075Z" fill="#25282B"/>
<path d="M169.073 124.262L180.456 102.305L158.524 113.701C151.491 117.341 144.994 121.995 139.213 127.425L101.845 162.688L120.201 181.066L155.424 143.654C160.788 137.867 165.437 131.363 169.073 124.262Z" fill="#00C39F"/>
<path opacity="0.6" d="M169.073 124.262L180.456 102.305L158.524 113.701C151.491 117.341 144.994 121.995 139.213 127.425L101.845 162.688L120.201 181.066L155.424 143.654C160.788 137.867 165.437 131.363 169.073 124.262Z" fill="white"/>
<path d="M145.71 144.788C149.956 144.788 153.398 141.342 153.398 137.091C153.398 132.84 149.956 129.394 145.71 129.394C141.463 129.394 138.021 132.84 138.021 137.091C138.021 141.342 141.463 144.788 145.71 144.788Z" fill="white"/>
<path d="M145.71 142.043C148.442 142.043 150.656 139.826 150.656 137.091C150.656 134.356 148.442 132.139 145.71 132.139C142.978 132.139 140.763 134.356 140.763 137.091C140.763 139.826 142.978 142.043 145.71 142.043Z" fill="#00C39F"/>
<path opacity="0.3" d="M126.399 174.502L108.4 156.483L123.121 142.58L140.226 159.764L126.399 174.502Z" fill="#00C39F"/>
<path d="M96.8382 170.207C83.3687 171.281 78.8988 179.932 77.4088 191.389C76.634 197.236 76.2764 203.143 71.3893 206.604C70.0185 207.558 70.6741 209.647 72.3429 209.647C90.4014 209.11 98.8645 200.219 99.9373 196.52C99.5797 198.847 99.0433 200.697 98.4473 202.188C97.8513 203.68 99.4605 205.052 100.831 204.217C105.897 201.055 112.274 195.148 112.692 185.66C108.937 180.35 96.8382 170.207 96.8382 170.207Z" fill="#19C9A8"/>
<path opacity="0.2" d="M96.8382 170.207C83.3687 171.281 78.8988 179.932 77.4088 191.389C76.634 197.236 76.2764 203.143 71.3893 206.604C70.0185 207.558 70.6741 209.647 72.3429 209.647C90.4014 209.11 98.8645 200.219 99.9373 196.52C99.5797 198.847 99.0433 200.697 98.4473 202.188C97.8513 203.68 99.4605 205.052 100.831 204.217C105.897 201.055 112.274 195.148 112.692 185.66C108.937 180.35 96.8382 170.207 96.8382 170.207Z" fill="white"/>
<path d="M114.778 189.658L93.2026 168.118L104.705 165.612L117.281 178.202L114.778 189.658Z" fill="#00C39F"/>
</svg>
