<svg width="24" height="24" viewBox="0 0 24 24" fill="none" xmlns="http://www.w3.org/2000/svg">
<path fill-rule="evenodd" clip-rule="evenodd" d="M16.8688 15.4583C19.3126 12.3198 19.0918 7.77911 16.2067 4.89393C13.0825 1.76973 8.01714 1.76973 4.89295 4.89393C1.76876 8.01812 1.76876 13.0834 4.89295 16.2076C7.77813 19.0928 12.3188 19.3135 15.4573 16.8698C15.4708 16.8851 15.4849 16.9001 15.4996 16.9147L19.7422 21.1574C20.1327 21.5479 20.7659 21.5479 21.1564 21.1574C21.5469 20.7669 21.5469 20.1337 21.1564 19.7432L16.9138 15.5005C16.8991 15.4859 16.8841 15.4718 16.8688 15.4583ZM14.7924 6.30814C17.1356 8.65129 17.1356 12.4503 14.7924 14.7934C12.4493 17.1366 8.65031 17.1366 6.30716 14.7934C3.96402 12.4503 3.96402 8.65129 6.30716 6.30814C8.65031 3.96499 12.4493 3.96499 14.7924 6.30814Z" fill="#52575C"/>
</svg>
